<svg xmlns="http://www.w3.org/2000/svg" viewBox="0 0 1000 1000">
  <path fill="#FF6B00" d="M1000 750c0 138.07-111.93 250-250 250H250C111.93 1000 0 888.07 0 750V250C0 111.93 111.93 0 250 0h500c138.07 0 250 111.93 250 250v500z"/>
  <path fill="#FFF" d="M500 201.47c-165.22 0-298.53 133.31-298.53 298.53S334.78 798.53 500 798.53 798.53 665.22 798.53 500 665.22 201.47 500 201.47zm0 537.35c-131.62 0-238.82-107.2-238.82-238.82S368.38 261.18 500 261.18 738.82 368.38 738.82 500 631.62 738.82 500 738.82z"/>
</svg> 