<svg xmlns="http://www.w3.org/2000/svg" viewBox="0 0 1000 618">
  <path fill="#FF5F00" d="M380.2 268.6h239.6v380.2H380.2z"/>
  <path fill="#EB001B" d="M395.7 458.7c0-154.3 72.4-291.6 185.2-380.2C520.8 30.4 445.8 0 363.9 0 162.9 0 0 162.9 0 363.9s162.9 363.9 363.9 363.9c81.9 0 156.9-30.4 217-78.5-112.8-88.6-185.2-225.9-185.2-380.2z"/>
  <path fill="#F79E1B" d="M1000 363.9c0 201-162.9 363.9-363.9 363.9-81.9 0-156.9-30.4-217-78.5 112.8-88.6 185.2-225.9 185.2-380.2S531.9 167.1 419.1 78.5C479.2 30.4 554.2 0 636.1 0 837.1 0 1000 162.9 1000 363.9z"/>
</svg> 