<svg xmlns="http://www.w3.org/2000/svg" viewBox="0 0 1000 324">
  <path fill="#1434CB" d="M651.19 0.43H348.81C156.15 0.43 0 156.58 0 349.24v325.52c0 192.66 156.15 348.81 348.81 348.81h302.38c192.66 0 348.81-156.15 348.81-348.81V349.24C1000 156.58 843.85 0.43 651.19 0.43z"/>
  <path fill="#FFF" d="M409.45 673.61l-98.27-235.9H235.6l-60.23 189.72-6.97-37.64c-12.78-44.47-52.42-85.48-96.89-107.69l62.59 191.52h75.89l109.87-235.9h75.89l98.27 235.9h-75.89zM149.76 437.71H21.43l-1.18-7.14c93.35-24.38 154.76-83.12 179.14-153.57l61.41 4.76c-30.34 118.91-111.05 155.93-111.05 155.93z"/>
  <path fill="#F7B600" d="M777.34 437.71c-1.18 94.53-130.43 97.09-130.43 97.09l-1.18 59.05c0 0 42.84 4.76 140.11-35.28l25.56 59.05c-42.84 21.82-77.07 30.34-106.05 30.34-64.66 0-130.43-35.28-130.43-142.49 0-107.21 69.42-144.67 128.47-144.67C777.34 361.82 777.34 437.71 777.34 437.71z"/>
  <path fill="#1434CB" d="M518.14 673.61l-75.89-235.9h-75.89L256.49 673.61h75.89l15.48-47.6h89.75l15.48 47.6h75.89zM368.97 567.56l37.3-114.35 37.3 114.35h-74.6z"/>
</svg> 